<?xml version="1.0" encoding="UTF-8"?>
<svg id="Layer_1" xmlns="http://www.w3.org/2000/svg" version="1.1" viewBox="0 0 240 148">
  <!-- Generator: Adobe Illustrator 30.3.0, SVG Export Plug-In . SVG Version: 2.1.3 Build 182)  -->
  <defs>
    <style>
      .st0 {
        fill: #5d4037;
      }

      .st1 {
        fill: #ffb300;
        opacity: .5;
      }

      .st1, .st2, .st3, .st4 {
        isolation: isolate;
      }

      .st2 {
        fill: #66bb6a;
        opacity: .65;
      }

      .st5 {
        fill: #ffccbc;
      }

      .st3 {
        fill: #fff;
        opacity: .6;
      }

      .st6 {
        fill: none;
        stroke: #424242;
      }

      .st7 {
        fill: #424242;
      }

      .st8 {
        fill: #a5d6a7;
      }

      .st9 {
        fill: #b3e5fc;
      }

      .st10 {
        fill: #ffcc80;
      }

      .st11 {
        fill: #f2dfc0;
      }

      .st12 {
        fill: #d7ccc8;
      }

      .st4 {
        fill: #fdd835;
        opacity: .85;
      }

      .st13 {
        fill: #fff8f0;
      }

      .st14 {
        fill: #ff8a80;
      }

      .st15 {
        fill: #7986cb;
      }

      .st16 {
        fill: #bcaaa4;
      }

      .st17 {
        fill: #ffd54f;
      }
    </style>
  </defs>
  <rect class="st13" y="0" width="240" height="148"/>
  <rect class="st11" y="115" width="240" height="33"/>
  <rect class="st9" x="168" y="12" width="56" height="66" rx="6" ry="6"/>
  <rect class="st3" x="194" y="12" width="3" height="66"/>
  <rect class="st3" x="168" y="44" width="56" height="3"/>
  <circle class="st4" cx="182" cy="30" r="11"/>
  <rect class="st10" x="14" y="14" width="34" height="42" rx="4" ry="4"/>
  <path class="st1" d="M20.5,21h21c.83,0,1.5.67,1.5,1.5h0c0,.83-.67,1.5-1.5,1.5h-21c-.83,0-1.5-.67-1.5-1.5h0c0-.83.67-1.5,1.5-1.5Z"/>
  <path class="st1" d="M20.5,29h15c.83,0,1.5.67,1.5,1.5h0c0,.83-.67,1.5-1.5,1.5h-15c-.83,0-1.5-.67-1.5-1.5h0c0-.83.67-1.5,1.5-1.5Z"/>
  <rect class="st8" x="55" y="14" width="34" height="42" rx="4" ry="4"/>
  <circle class="st2" cx="72" cy="35" r="9"/>
  <rect class="st16" x="64" y="107" width="9" height="22" rx="3" ry="3"/>
  <rect class="st16" x="157" y="107" width="9" height="22" rx="3" ry="3"/>
  <rect class="st12" x="50" y="97" width="130" height="12" rx="5" ry="5"/>
  <rect class="st14" x="73" y="87" width="34" height="10" rx="3" ry="3"/>
  <rect class="st17" x="116" y="88" width="5" height="9" rx="2" ry="2"/>
  <rect class="st15" x="93" y="74" width="32" height="23" rx="10" ry="10"/>
  <circle class="st5" cx="109" cy="62" r="15"/>
  <path class="st0" d="M94,62c0-12,5-18,15-18s15,6,15,18c-2-6-7-9.67-15-11-8,1.33-13,5-15,11Z"/>
  <circle class="st7" cx="104" cy="61" r="2.5"/>
  <circle class="st7" cx="114" cy="61" r="2.5"/>
  <path class="st6" d="M104,68c3.33,3.33,6.67,3.33,10,0"/>
</svg>