<?xml version="1.0" encoding="UTF-8"?>
<svg id="Layer_1" xmlns="http://www.w3.org/2000/svg" version="1.1" viewBox="0 0 240 148">
  <!-- Generator: Adobe Illustrator 30.3.0, SVG Export Plug-In . SVG Version: 2.1.3 Build 182)  -->
  <defs>
    <style>
      .st0, .st1 {
        fill: #ab47bc;
      }

      .st2 {
        fill: #ff8a65;
      }

      .st3, .st4 {
        fill: #80deea;
      }

      .st5, .st6 {
        fill: #ffab91;
      }

      .st5, .st7, .st4, .st8, .st1, .st9, .st10 {
        isolation: isolate;
      }

      .st5, .st7, .st4, .st1, .st9, .st10 {
        opacity: .85;
      }

      .st11 {
        fill: #fff;
      }

      .st7, .st12 {
        fill: #ff7043;
      }

      .st13 {
        stroke: #37474f;
      }

      .st13, .st14, .st15, .st16, .st17, .st18 {
        fill: none;
      }

      .st19 {
        fill: #ffccbc;
      }

      .st14 {
        stroke: #424242;
      }

      .st20 {
        fill: #424242;
      }

      .st21 {
        fill: #5c6bc0;
      }

      .st22 {
        fill: #a5d6a7;
      }

      .st15 {
        stroke: #4a148c;
      }

      .st16 {
        stroke: #006064;
      }

      .st23, .st9 {
        fill: #26c6da;
      }

      .st8 {
        fill: #f1f8e9;
        opacity: .75;
      }

      .st24 {
        fill: #bf360c;
      }

      .st25 {
        fill: #4a148c;
      }

      .st26 {
        fill: #c8e6c9;
      }

      .st17 {
        stroke: #bf360c;
      }

      .st10, .st27 {
        fill: #ce93d8;
      }

      .st28 {
        fill: #81c784;
      }

      .st18 {
        stroke: #a5d6a7;
      }

      .st29 {
        fill: #e8f4fd;
      }

      .st30 {
        fill: #006064;
      }
    </style>
  </defs>
  <rect class="st29" y="0" width="240" height="148"/>
  <rect class="st26" y="122" width="240" height="26"/>
  <path class="st22" d="M18,122c2-4.67,4-4.67,6,0"/>
  <path class="st22" d="M52,122c2-4,4-4,6,0"/>
  <path class="st22" d="M180,122c2-4,4-4,6,0"/>
  <path class="st22" d="M215,122c2-4,4-4,6,0"/>
  <rect class="st21" x="99" y="107" width="13" height="20" rx="5" ry="5"/>
  <rect class="st21" x="115" y="107" width="13" height="20" rx="5" ry="5"/>
  <rect class="st28" x="92" y="73" width="42" height="36" rx="12" ry="12"/>
  <rect class="st8" x="99" y="83" width="28" height="26" rx="12" ry="12"/>
  <rect class="st18" x="99" y="83" width="28" height="26" rx="12" ry="12"/>
  <path class="st6" d="M108,92c-1-8-9-8-8,0h8Z"/>
  <path class="st12" d="M108,92c1-8,9-8,8,0h-8Z"/>
  <path class="st5" d="M108,92c-1,5-7,4-6,0h6Z"/>
  <path class="st7" d="M108,92c1,5,7,4,6,0h-6Z"/>
  <ellipse class="st24" cx="108" cy="92" rx="1.5" ry="4"/>
  <line class="st17" x1="108" y1="88" x2="104" y2="84"/>
  <circle class="st24" cx="104" cy="83.5" r="1"/>
  <line class="st17" x1="108" y1="88" x2="112" y2="84"/>
  <circle class="st24" cx="112" cy="83.5" r="1"/>
  <path class="st3" d="M118,100c-1-8-9-8-8,0h8Z"/>
  <path class="st23" d="M118,100c1-8,9-8,8,0h-8Z"/>
  <path class="st4" d="M118,100c-1,5-7,4-6,0h6Z"/>
  <path class="st9" d="M118,100c1,5,7,4,6,0h-6Z"/>
  <ellipse class="st30" cx="118" cy="100" rx="1.5" ry="4"/>
  <line class="st16" x1="118" y1="96" x2="114" y2="92"/>
  <circle class="st30" cx="113.5" cy="91.5" r="1"/>
  <line class="st16" x1="118" y1="96" x2="122" y2="92"/>
  <circle class="st30" cx="122.5" cy="91.5" r="1"/>
  <path class="st27" d="M108,103c-1-8-9-8-8,0h8Z"/>
  <path class="st0" d="M108,103c1-8,9-8,8,0h-8Z"/>
  <path class="st10" d="M108,103c-1,5-7,4-6,0h6Z"/>
  <path class="st1" d="M108,103c1,5,7,4,6,0h-6Z"/>
  <ellipse class="st25" cx="108" cy="103" rx="1.5" ry="4"/>
  <line class="st15" x1="108" y1="99" x2="104" y2="95"/>
  <circle class="st25" cx="103.5" cy="94.5" r="1"/>
  <line class="st15" x1="108" y1="99" x2="112" y2="95"/>
  <circle class="st25" cx="112.5" cy="94.5" r="1"/>
  <rect class="st19" x="75.6" y="74.95" width="16" height="9" rx="4" ry="4" transform="translate(-17.71 24.34) rotate(-15)"/>
  <rect class="st19" x="135.9" y="71.45" width="9" height="16" rx="4" ry="4" transform="translate(27.32 194.5) rotate(-75)"/>
  <circle class="st19" cx="113" cy="60" r="16"/>
  <path class="st2" d="M97,60c0-12.67,5.33-19,16-19s16,6.33,16,19c-2-6-7.33-9.67-16-11-8.67,1.33-14,5-16,11Z"/>
  <path class="st13" d="M104,54c4.14-3.18,5.95-2.39,7,0"/>
  <path class="st13" d="M115,54c.97-2.93,2.43-3.09,7,0"/>
  <circle class="st20" cx="108" cy="59" r="3.2"/>
  <circle class="st20" cx="118" cy="59" r="3.2"/>
  <circle class="st11" cx="108" cy="60.2" r="1.2"/>
  <circle class="st11" cx="118" cy="60.2" r="1.2"/>
  <path class="st14" d="M108,68c3.2-3.28,6.5-3.28,10,0"/>
</svg>