<svg id="Layer_1" xmlns="http://www.w3.org/2000/svg" version="1.1" viewBox="0 0 240 148">
  <!-- Generator: Adobe Illustrator 30.3.0, SVG Export Plug-In . SVG Version: 2.1.3 Build 182)  -->
  <defs>
    <style>
      .st0 {
        stroke: #eceff1;
      }

      .st0, .st1, .st2, .st3 {
        fill: none;
      }

      .st0, .st2, .st3, .st4 {
        display: none;
      }

      .st5 {
        fill: #37474f;
      }

      .st6 {
        fill: #5d4037;
      }

      .st7 {
        fill: #747c7f;
      }

      .st1 {
        stroke: #37474f;
      }

      .st8 {
        fill: #fff;
        opacity: .6;
      }

      .st8, .st9, .st10, .st11, .st4 {
        isolation: isolate;
      }

      .st9 {
        fill: #c62828;
      }

      .st9, .st4 {
        opacity: .25;
      }

      .st12 {
        fill: #a5d6a7;
      }

      .st13 {
        fill: #b3e5fc;
      }

      .st14 {
        fill: #ffcc80;
      }

      .st15 {
        fill: #f2dfc0;
      }

      .st16 {
        fill: #ef6a6a;
      }

      .st17 {
        fill: #d7ccc8;
      }

      .st10 {
        fill: #fdd835;
        opacity: .85;
      }

      .st2 {
        stroke: #cfd8dc;
      }

      .st18 {
        fill: #fff8f0;
      }

      .st3 {
        stroke: #b0bec5;
      }

      .st11 {
        fill: #bfbfbf;
        opacity: .4;
      }

      .st19 {
        fill: #ef9a9a;
      }

      .st20 {
        fill: #bcaaa4;
      }
    </style>
  </defs>
  <rect class="st18" y="0" width="240" height="148"/>
  <rect class="st15" y="116" width="240" height="32"/>
  <rect class="st13" x="168" y="12" width="56" height="64" rx="6" ry="6"/>
  <rect class="st8" x="194" y="12" width="3" height="64"/>
  <rect class="st8" x="168" y="43" width="56" height="3"/>
  <circle class="st10" cx="182" cy="28" r="11"/>
  <rect class="st14" x="14" y="14" width="34" height="42" rx="4" ry="4"/>
  <rect class="st12" x="55" y="14" width="34" height="42" rx="4" ry="4"/>
  <rect class="st17" x="50" y="98" width="130" height="11" rx="5" ry="5"/>
  <rect class="st20" x="65" y="109" width="9" height="20" rx="3" ry="3"/>
  <rect class="st20" x="157" y="109" width="9" height="20" rx="3" ry="3"/>
  <rect class="st19" x="93" y="74" width="34" height="26" rx="10" ry="10"/>
  <line class="st3" x1="93" y1="56" x2="70" y2="56"/>
  <line class="st2" x1="93" y1="62" x2="73" y2="62"/>
  <line class="st0" x1="93" y1="68" x2="76" y2="68"/>
  <line class="st3" x1="127" y1="56" x2="150" y2="56"/>
  <line class="st2" x1="127" y1="62" x2="147" y2="62"/>
  <line class="st0" x1="127" y1="68" x2="144" y2="68"/>
  <circle class="st16" cx="110" cy="61" r="16"/>
  <path class="st6" d="M94,61c0-12.67,5.33-19,16-19s16,6.33,16,19c-2-6-7.33-9.67-16-11-8.67,1.33-14,5-16,11Z"/>
  <line class="st1" x1="108" y1="57" x2="100" y2="49"/>
  <line class="st1" x1="112" y1="57" x2="120" y2="49"/>
  <ellipse class="st5" cx="105" cy="59" rx="3" ry="2.5"/>
  <ellipse class="st5" cx="115" cy="59" rx="3" ry="2.5"/>
  <path class="st1" d="M104,69c4-3.33,8-3.33,12,0"/>
  <circle class="st9" cx="100" cy="65" r="6"/>
  <circle class="st9" cx="120" cy="65" r="6"/>
  <g>
    <path class="st7" d="M93.42,63.4c-1.37.1-2.67,1.27-2.87,2.57,0,.04.07.09.09.05.35-.51.64-1.05,1.09-1.48.5-.48,1.12-.75,1.71-1.11.02,0,0-.04-.02-.04h0Z"/>
    <path class="st7" d="M93.21,56.61c-1.68-.23-4.54-1.43-4.23-3.63.08-.6.63-1.22,1.3-1.03.69.2.69,1.03.58,1.6,0,.03-.05.03-.05,0,0-.18,0-.4-.07-.58-.45-1.23-1.28-.5-1.37.23-.07.6.47,1.31.87,1.7.85.82,1.86,1.2,3.02,1.66,0,0,.23.1.1.09l-.15-.03h0Z"/>
    <path class="st7" d="M93.38,55.42c-1.05-.23-2.52-1.23-1.99-2.51.13-.32.46-.55.81-.44.55.18.49.84.31,1.26-.01.03-.06.02-.06,0,0-.14,0-.29.01-.43-.02-.88-.99-.43-.88.19.02.31.22.58.4.83.36.5.9.77,1.43,1.05.03.02.02.07-.02.06h-.01Z"/>
    <path class="st4" d="M72.72,60.77c.2-1.26.85-2.25,1.79-2.71.44-.22.94-.32,1.38-.28.26.03.48.11.67.21.02-.08.04-.17.07-.25,0-.02.02-.05.02-.07-.9-.47-1.41-1.3-1.38-2.22.04-1.14.91-2.09,1.75-2.53,1.12-.57,2.44-.55,3.35.05.05.03.09.06.14.1l.02.02s.04.04.06.05h.02v.02c.05-.08.11-.16.16-.24.03-.04.06-.08.1-.12.04-.06.08-.11.15-.15.17-.1.39-.11.57-.09.37.02.89.19,1.19.47.18.12.34.27.5.49.97-.65,2.11-.59,3.01.16.55.46.94,1.14,1.07,1.87.14.76-.06,1.33-.67,1.89.03.05.07.07.1.12.98.77,2.35,1.02,3.44,1.13.09,0,.26,0,.32,0,.23-.07.5-.16.74-.25.49-.19,1.17-.38,1.74,0,.32.21.69.65.7,1.52.01.76-.22,1.24-.6,1.62-.39.4-2.02.45-2.02.45-.15,0-.33.07-.46.09-1.09.31-2.39.8-3.33,1.42l-.03.02c-.05.04-.1.06-.14.09.28.5.29,1.07.11,1.52-.18.47-.59.81-1.11.93-.57.13-1.17-.04-1.57-.42-.06-.06-.14-.05-.18-.02-.03.02-.09.06-.07.15.21.88.06,1.81-.42,2.56-.46.71-1.17,1.19-2,1.35-1.6.31-2.97-.56-3.67-2.33l-.06-.16h0c-.05-.11-.09-.22-.13-.34h-.03c-1.07-.21-1.85-.91-2.03-1.8-.15-.03-.3-.07-.45-.12-.77.03-1.45-.26-1.98-.85-.15-.17-.29-.37-.41-.58-.43-.78-.61-1.79-.45-2.74l.02-.03Z"/>
    <path class="st11" d="M77.31,53.49c.92-.47,1.98-.46,2.7.02.03.02,1.01.35,1.14,2.21.04.64.49.31.53-.5.06-1.44-.77-1.82-.71-1.93,0,0,.2-.13.58-.1.27.02.63.15.78.3l.05.04.05.03c.09.06.18.14.26.25-.11.13-.23.29-.31.48-.2.5-.1.87.18.53.43-.52,1.07-.79,1.07-.79.73-.49,1.56-.44,2.24.12.43.36.74.91.85,1.49.1.54-.03.89-.47,1.31l-.38.35.26.44s.06.1.09.15l.06.1.09.07c.75.59,1.68.89,2.56,1.07.43.08,1.65.23,2.58-.11.56-.21.9-.23,1.15-.06.27.19.42.52.42.99,0,.18-.01.33-.04.47-.14-.23-.34-.43-.57-.57-1.13-.09-4.87.52-7.55-.18.04-.08.06-.17.06-.25.02-.45-.23-.89-.61-1.11-.39-.22-.89-.21-1.27.02-.29.19-.5.5-.56.85-.39-.37-.58-.95-.46-1.47.06-.28.21-.54.42-.74-.42-.09-.88,0-1.23.25-.49.36-.72,1.04-.55,1.63-.18-.42-.68-.67-1.13-.59-.46.08-.83.49-.9.95-.06.39.09.79.36,1.07h-.08c-.15,0-.3-.07-.44-.14-.44-.22-.81-.61-.97-1.08s-.1-1.02.19-1.42c.14-.19.32-.35.53-.47.34-.2.75-.29,1.14-.22.29.06.56.22.74.45.09.12.19.08.21.07.06-.04.02-.15-.03-.28-.14-.28-.36-.53-.62-.69-.39-.24-.89-.32-1.34-.2-.32.08-.6.26-.84.48-.14.13-.27.28-.39.43l-.19-.1c-.68-.36-1.06-.96-1.04-1.63.03-.88.75-1.64,1.4-1.98h0Z"/>
    <path class="st11" d="M75.82,58.42c.15,0,.28.06.45.14l.41.21c.05.69.45,1.36,1.06,1.69.5.27,1.12.28,1.63.05.02,0,.03.02.05.02.28.14-.33,1.05-1.09,1.18-.67.11-1.37.02-1.99-.24-.1.28-.16.57-.13.86.06.46.39.87.83,1.02.34.12.73.07,1.04-.12.18.74.72,1.4,1.43,1.68.46.18.98.2,1.46.07.2-.05-1.15,1.59-2.75,1.36-.81-.12-1.45-.79-1.57-1.41l-.08-.42-.42-.09c-.12-.02-.24-.06-.36-.1l-.12-.04h-.12c-.58.03-1.08-.19-1.47-.63-.12-.13-.23-.29-.33-.46-.37-.66-.51-1.53-.38-2.32.17-1.05.69-1.86,1.44-2.23.33-.16.72-.24,1.03-.21h-.02Z"/>
    <path class="st5" d="M89.17,62.88c-.62.26-1.3.57-1.88.97-.06-.12-.13-.23-.21-.33.79-.56,1.93-1.03,2.92-1.36.08-.03.71-.23,1.12-.27.48-.05.72.07.59.1-1,.25-2.19.75-2.54.89Z"/>
    <path class="st5" d="M86.89,57.32c1.03.65,2.31,1.04,3.43,1.14.61.05,1.2-.21,1.2-.1,0,.12-.74.51-1.51.43-1.24-.13-2.4-.36-3.38-1.17-.01,0-.03-.05-.06-.1.11-.06.21-.13.32-.19h0Z"/>
    <path class="st7" d="M91.08,61.01c-.91.12-1.87.33-2.74.64-.75.27-1.16.46-1.84.89-.05.03-.11-.06-.07-.11,1.16-1.02,3.35-1.63,4.64-1.49.04,0,.04.06,0,.06h0Z"/>
    <path class="st5" d="M78.27,67.05c.53,1.61,1.79,2.89,3.64,2.54,1.75-.33,2.74-2.08,2.33-3.76-.06-.26.26-.42.45-.25.73.7,2.1.54,2.49-.46.31-.8-.21-1.75-.89-2.18-.02,0,0-.04.01-.03,1.21.21,1.81,1.7,1.17,2.74-.55.9-1.73,1.09-2.63.67.12,1.8-1.06,3.49-2.93,3.8-1.89.31-3.64-.76-4.09-3.17.11.03.33.1.44.11h.01Z"/>
    <path class="st5" d="M81.48,65.27c-.5,1.51-2.16,2.33-3.68,1.98-1.06-.24-2.82-1.58-1.89-2.81.05-.07.2-.06.19.05-.11,1.19.86,2.03,1.96,2.25,1.37.27,2.51-.44,3.26-1.54.05-.08.19-.03.16.07h0Z"/>
    <path class="st5" d="M74.46,57.61c.62-.22,1.62-.25,2.3.11-.05.14-.09.3-.11.46-.23-.13-.47-.24-.77-.27-.44-.04-.92.07-1.31.26-1,.49-1.55,1.55-1.72,2.62-.33,2.02.85,4.36,3.05,4.01,0,.12.01.36.01.47-.85.31-1.9-.08-2.57-.68-1.07-.96-1.35-2.58-1.1-3.93.23-1.27.96-2.59,2.23-3.04h-.01Z"/>
    <path class="st5" d="M79.42,60.6c-.67.53-1.62.37-2.25-.16-.75-.63-.98-1.7-.71-2.62.54-1.81,3.02-2.58,3.92-.62.04.08-.07.14-.12.07-.91-1.34-2.93-.76-3.28.71-.37,1.55.84,2.82,2.38,2.52.05,0,.1.06.05.1h.01Z"/>
    <path class="st5" d="M80.63,52.74c.87.63,1.63,2.14,1.02,3.16-.06.09-.2.05-.2-.06-.02-1.13-.1-2.09-1.15-2.78-.96-.63-2.24-.55-3.23-.05-.88.45-1.66,1.4-1.69,2.43-.03.98.58,1.76,1.42,2.16-.02.06-.05.12-.07.18-.97-.15-1.66-1.13-1.75-2.1-.12-1.26.7-2.43,1.76-3.05,1.17-.68,2.77-.72,3.89.1h0Z"/>
    <path class="st5" d="M86.33,57.59c.69-.55,1.08-1.11.92-2.03-.13-.69-.49-1.35-1.03-1.8-1.31-1.1-2.95-.55-3.77.79-.06.09-.23.06-.22-.06.26-2.08,2.97-2.35,4.33-1.22.77.64,1.3,1.66,1.23,2.68-.06.77-.55,1.73-1.42,1.75-.05,0-.08-.07-.04-.11h0Z"/>
    <path class="st5" d="M82.47,52.4c.35.16.75.47.79.87,0,.1,0,.13-.02.22-.08.03-.27.07-.35.1.09-.56-.81-.89-1.31-.92-.16,0-.36,0-.5.08-.17.1-.13.27-.23.4-.07.09-.16.15-.28.11-.1-.03-.19-.13-.18-.24.12-1.03,1.36-.94,2.08-.61h0Z"/>
    <path class="st7" d="M81.24,70.86c1.88.05,3.6-1.23,4.1-3.01.01-.04.08-.03.08.01-.07,2.05-2.22,3.52-4.19,3.08-.04-.01-.03-.08.01-.08h0Z"/>
    <path class="st7" d="M75.86,66.72c.27.33.54.6.92.8.15.08.3.13.45.16.13.03.26.05.4.07.02.17.05.33.09.49.35,1.39,1.35,2.22,2.69,2.58.04.01.03.07-.01.08-1.58.1-2.82-1.24-3.12-2.7-.7-.17-1.35-.78-1.51-1.43-.01-.05.05-.09.09-.05h0Z"/>
    <path class="st7" d="M74.9,53.3s.04,0,.03.03c-.31.56-.6,1.04-.65,1.7-.04.5.06.96.26,1.4.06.14.13.27.21.4-.16.06-.31.11-.46.16-.81.29-1.52.6-2.1,1.39s-.8,1.72-.84,2.69c0,.03-.04.03-.05,0-.26-1.05,0-2.15.62-3.02.47-.66,1.28-1.3,2.13-1.54-.44-1.11-.24-2.56.84-3.21h.01Z"/>
    <path class="st7" d="M87.28,53.14c-.92-1.3-2.33-1.61-3.77-.94-.04.02-.07-.03-.04-.06,1.15-1.31,3.43-.68,3.84.99,0,.02-.02.03-.03,0h0Z"/>
  </g>
  <g>
    <path class="st7" d="M127.05,63.4c1.37.1,2.67,1.27,2.87,2.57,0,.04-.07.09-.09.05-.35-.51-.64-1.05-1.09-1.48-.5-.48-1.12-.75-1.71-1.11-.02,0,0-.04.02-.04h0Z"/>
    <path class="st7" d="M127.26,56.61c1.68-.23,4.54-1.43,4.23-3.63-.08-.6-.63-1.22-1.3-1.03-.69.2-.69,1.03-.58,1.6,0,.03.05.03.05,0,0-.18,0-.4.07-.58.45-1.23,1.28-.5,1.37.23.07.6-.47,1.31-.87,1.7-.85.82-1.86,1.2-3.02,1.66,0,0-.23.1-.1.09l.15-.03h0Z"/>
    <path class="st7" d="M127.09,55.42c1.05-.23,2.52-1.23,1.99-2.51-.13-.32-.46-.55-.81-.44-.55.18-.49.84-.31,1.26.01.03.06.02.06,0,0-.14,0-.29,0-.43.02-.88.99-.43.88.19-.02.31-.22.58-.4.83-.36.5-.9.77-1.43,1.05-.03.02-.02.07.02.06h0Z"/>
    <path class="st4" d="M147.75,60.77c-.2-1.26-.85-2.25-1.79-2.71-.44-.22-.94-.32-1.38-.28-.26.03-.48.11-.67.21-.02-.08-.04-.17-.07-.25,0-.02-.02-.05-.02-.07.9-.47,1.41-1.3,1.38-2.22-.04-1.14-.91-2.09-1.75-2.53-1.12-.57-2.44-.55-3.35.05-.05.03-.09.06-.14.1l-.02.02s-.04.04-.06.05h-.02v.02c-.05-.08-.11-.16-.16-.24-.03-.04-.06-.08-.1-.12-.04-.06-.08-.11-.15-.15-.17-.1-.39-.11-.57-.09-.37.02-.89.19-1.19.47-.18.12-.34.27-.5.49-.97-.65-2.11-.59-3.01.16-.55.46-.94,1.14-1.07,1.87-.14.76.06,1.33.67,1.89-.03.05-.07.07-.1.12-.98.77-2.35,1.02-3.44,1.13-.09,0-.26,0-.32,0-.23-.07-.5-.16-.74-.25-.49-.19-1.17-.38-1.74,0-.32.21-.69.65-.7,1.52-.01.76.22,1.24.6,1.62.39.4,2.02.45,2.02.45.15,0,.33.07.46.09,1.09.31,2.39.8,3.33,1.42l.03.02c.05.04.1.06.14.09-.28.5-.29,1.07-.11,1.52.18.47.59.81,1.11.93.57.13,1.17-.04,1.57-.42.06-.06.14-.05.18-.02.03.02.09.06.07.15-.21.88-.06,1.81.42,2.56.46.71,1.17,1.19,2,1.35,1.6.31,2.97-.56,3.67-2.33l.06-.16h0c.05-.11.09-.22.13-.34h.03c1.07-.21,1.85-.91,2.03-1.8.15-.03.3-.07.45-.12.77.03,1.45-.26,1.98-.85.15-.17.29-.37.41-.58.43-.78.61-1.79.45-2.74l-.02-.03Z"/>
    <path class="st11" d="M143.16,53.49c-.92-.47-1.98-.46-2.7.02-.03.02-1.01.35-1.14,2.21-.04.64-.49.31-.53-.5-.06-1.44.77-1.82.71-1.93,0,0-.2-.13-.58-.1-.27.02-.63.15-.78.3l-.05.04-.05.03c-.09.06-.18.14-.26.25.11.13.23.29.31.48.2.5.1.87-.18.53-.43-.52-1.07-.79-1.07-.79-.73-.49-1.56-.44-2.24.12-.43.36-.74.91-.85,1.49-.1.54.03.89.47,1.31l.38.35-.26.44s-.06.1-.09.15l-.06.1-.09.07c-.75.59-1.68.89-2.56,1.07-.43.08-1.65.23-2.58-.11-.56-.21-.9-.23-1.15-.06-.27.19-.42.52-.42.99,0,.18.01.33.04.47.14-.23.34-.43.57-.57,1.13-.09,4.87.52,7.55-.18-.04-.08-.06-.17-.06-.25-.02-.45.23-.89.61-1.11.39-.22.89-.21,1.27.02.29.19.5.5.56.85.39-.37.58-.95.46-1.47-.06-.28-.21-.54-.42-.74.42-.09.88,0,1.23.25.49.36.72,1.04.55,1.63.18-.42.68-.67,1.13-.59.46.08.83.49.9.95.06.39-.09.79-.36,1.07h.08c.15,0,.3-.07.44-.14.44-.22.81-.61.97-1.08s.1-1.02-.19-1.42c-.14-.19-.32-.35-.53-.47-.34-.2-.75-.29-1.14-.22-.29.06-.56.22-.74.45-.09.12-.19.08-.21.07-.06-.04-.02-.15.03-.28.14-.28.36-.53.62-.69.39-.24.89-.32,1.34-.2.32.08.6.26.84.48.14.13.27.28.39.43l.19-.1c.68-.36,1.06-.96,1.04-1.63-.03-.88-.75-1.64-1.4-1.98h0Z"/>
    <path class="st11" d="M144.65,58.42c-.15,0-.28.06-.45.14l-.41.21c-.05.69-.45,1.36-1.06,1.69-.5.27-1.12.28-1.63.05-.02,0-.03.02-.05.02-.28.14.33,1.05,1.09,1.18.67.11,1.37.02,1.99-.24.1.28.16.57.13.86-.06.46-.39.87-.83,1.02-.34.12-.73.07-1.04-.12-.18.74-.72,1.4-1.43,1.68-.46.18-.98.2-1.46.07-.2-.05,1.15,1.59,2.75,1.36.81-.12,1.45-.79,1.57-1.41l.08-.42.42-.09c.12-.02.24-.06.36-.1l.12-.04h.12c.58.03,1.08-.19,1.47-.63.12-.13.23-.29.33-.46.37-.66.51-1.53.38-2.32-.17-1.05-.69-1.86-1.44-2.23-.33-.16-.72-.24-1.03-.21h.02Z"/>
    <path class="st5" d="M131.3,62.88c.62.26,1.3.57,1.88.97.06-.12.13-.23.21-.33-.79-.56-1.93-1.03-2.92-1.36-.08-.03-.71-.23-1.12-.27-.48-.05-.72.07-.59.1,1,.25,2.19.75,2.54.89h0Z"/>
    <path class="st5" d="M133.58,57.32c-1.03.65-2.31,1.04-3.43,1.14-.61.05-1.2-.21-1.2-.1,0,.12.74.51,1.51.43,1.24-.13,2.4-.36,3.38-1.17,0,0,.03-.05.06-.1-.11-.06-.21-.13-.32-.19h0Z"/>
    <path class="st7" d="M129.4,61.01c.91.12,1.87.33,2.74.64.75.27,1.16.46,1.84.89.05.03.11-.06.07-.11-1.16-1.02-3.35-1.63-4.64-1.49-.04,0-.04.06,0,.06h-.01Z"/>
    <path class="st5" d="M142.2,67.05c-.53,1.61-1.79,2.89-3.64,2.54-1.75-.33-2.74-2.08-2.33-3.76.06-.26-.26-.42-.45-.25-.73.7-2.1.54-2.49-.46-.31-.8.21-1.75.89-2.18.02,0,0-.04,0-.03-1.21.21-1.81,1.7-1.17,2.74.55.9,1.73,1.09,2.63.67-.12,1.8,1.06,3.49,2.93,3.8,1.89.31,3.64-.76,4.09-3.17-.11.03-.33.1-.44.11h0Z"/>
    <path class="st5" d="M138.99,65.27c.5,1.51,2.16,2.33,3.68,1.98,1.06-.24,2.82-1.58,1.89-2.81-.05-.07-.2-.06-.19.05.11,1.19-.86,2.03-1.96,2.25-1.37.27-2.51-.44-3.26-1.54-.05-.08-.19-.03-.16.07h0Z"/>
    <path class="st5" d="M146.01,57.61c-.62-.22-1.62-.25-2.3.11.05.14.09.3.11.46.23-.13.47-.24.77-.27.44-.04.92.07,1.31.26,1,.49,1.55,1.55,1.72,2.62.33,2.02-.85,4.36-3.05,4.01,0,.12,0,.36,0,.47.85.31,1.9-.08,2.57-.68,1.07-.96,1.35-2.58,1.1-3.93-.23-1.27-.96-2.59-2.23-3.04h0Z"/>
    <path class="st5" d="M141.06,60.6c.67.53,1.62.37,2.25-.16.75-.63.98-1.7.71-2.62-.54-1.81-3.02-2.58-3.92-.62-.04.08.07.14.12.07.91-1.34,2.93-.76,3.28.71.37,1.55-.84,2.82-2.38,2.52-.05,0-.1.06-.05.1h0Z"/>
    <path class="st5" d="M139.84,52.74c-.87.63-1.63,2.14-1.02,3.16.06.09.2.05.2-.06.02-1.13.1-2.09,1.15-2.78.96-.63,2.24-.55,3.23-.05.88.45,1.66,1.4,1.69,2.43.03.98-.58,1.76-1.42,2.16.02.06.05.12.07.18.97-.15,1.66-1.13,1.75-2.1.12-1.26-.7-2.43-1.76-3.05-1.17-.68-2.77-.72-3.89.1h0Z"/>
    <path class="st5" d="M134.14,57.59c-.69-.55-1.08-1.11-.92-2.03.13-.69.49-1.35,1.03-1.8,1.31-1.1,2.95-.55,3.77.79.06.09.23.06.22-.06-.26-2.08-2.97-2.35-4.33-1.22-.77.64-1.3,1.66-1.23,2.68.06.77.55,1.73,1.42,1.75.05,0,.08-.07.04-.11h0Z"/>
    <path class="st5" d="M138,52.4c-.35.16-.75.47-.79.87,0,.1,0,.13.02.22.08.03.27.07.35.1-.09-.56.81-.89,1.31-.92.16,0,.36,0,.5.08.17.1.13.27.23.4.07.09.16.15.28.11.1-.03.19-.13.18-.24-.12-1.03-1.36-.94-2.08-.61h0Z"/>
    <path class="st7" d="M139.23,70.86c-1.88.05-3.6-1.23-4.1-3.01,0-.04-.08-.03-.08.01.07,2.05,2.22,3.52,4.19,3.08.04-.01.03-.08,0-.08h0Z"/>
    <path class="st7" d="M144.61,66.72c-.27.33-.54.6-.92.8-.15.08-.3.13-.45.16-.13.03-.26.05-.4.07-.02.17-.05.33-.09.49-.35,1.39-1.35,2.22-2.69,2.58-.04.01-.03.07,0,.08,1.58.1,2.82-1.24,3.12-2.7.7-.17,1.35-.78,1.51-1.43,0-.05-.05-.09-.09-.05Z"/>
    <path class="st7" d="M145.57,53.3s-.04,0-.03.03c.31.56.6,1.04.65,1.7.04.5-.06.96-.26,1.4-.06.14-.13.27-.21.4.16.06.31.11.46.16.81.29,1.52.6,2.1,1.39s.8,1.72.84,2.69c0,.03.04.03.05,0,.26-1.05,0-2.15-.62-3.02-.47-.66-1.28-1.3-2.13-1.54.44-1.11.24-2.56-.84-3.21h-.01Z"/>
    <path class="st7" d="M133.19,53.14c.92-1.3,2.33-1.61,3.77-.94.04.02.07-.03.04-.06-1.15-1.31-3.43-.68-3.84.99,0,.02.02.03.03,0h0Z"/>
  </g>
</svg>