<?xml version="1.0" encoding="UTF-8"?>
<svg id="Layer_1" xmlns="http://www.w3.org/2000/svg" version="1.1" viewBox="0 0 240 148">
  <!-- Generator: Adobe Illustrator 30.3.0, SVG Export Plug-In . SVG Version: 2.1.3 Build 182)  -->
  <defs>
    <style>
      .st0 {
        fill: #37474f;
      }

      .st1 {
        fill: #ef7b7b;
      }

      .st2 {
        fill: #ffccbc;
      }

      .st3 {
        fill: none;
        stroke: #424242;
      }

      .st4 {
        fill: #424242;
      }

      .st5 {
        fill: #ffc5b6;
      }

      .st6 {
        fill: #ff8a65;
        opacity: .28;
      }

      .st6, .st7, .st8 {
        isolation: isolate;
      }

      .st9 {
        fill: #8bdd6c;
      }

      .st10 {
        fill: #b3e5fc;
      }

      .st11 {
        fill: #dcedc8;
      }

      .st12 {
        fill: #fdd835;
      }

      .st13 {
        fill: #b77dd1;
      }

      .st14 {
        fill: #fffde7;
      }

      .st15 {
        fill: #455a64;
      }

      .st7 {
        fill: #4fc3f7;
        opacity: .7;
      }

      .st16 {
        fill: #838add;
      }

      .st8 {
        fill: #aed581;
        opacity: .8;
      }

      .st17 {
        fill: #ffa726;
      }

      .st18 {
        fill: #f3e5c3;
      }
    </style>
  </defs>
  <rect class="st14" y="0" width="240" height="148"/>
  <rect class="st18" y="118" width="240" height="30"/>
  <rect class="st10" x="14" y="12" width="42" height="44" rx="5" ry="5"/>
  <path class="st7" d="M21.5,19h27c.83,0,1.5.67,1.5,1.5h0c0,.83-.67,1.5-1.5,1.5h-27c-.83,0-1.5-.67-1.5-1.5h0c0-.83.67-1.5,1.5-1.5Z"/>
  <path class="st7" d="M21.5,28h19c.83,0,1.5.67,1.5,1.5h0c0,.83-.67,1.5-1.5,1.5h-19c-.83,0-1.5-.67-1.5-1.5h0c0-.83.67-1.5,1.5-1.5Z"/>
  <rect class="st11" x="63" y="12" width="42" height="44" rx="5" ry="5"/>
  <circle class="st8" cx="84" cy="34" r="12"/>
  <rect class="st15" x="128" y="8" width="100" height="68" rx="6" ry="6"/>
  <rect class="st0" x="133" y="13" width="90" height="58" rx="4" ry="4"/>
  <g>
    <path class="st5" d="M69.63,92.75l24.62-4.34c2.72-.48,5.31,1.34,5.79,4.06h0c.48,2.72-1.34,5.31-4.06,5.79l-24.62,4.34c-2.72.48-5.31-1.34-5.79-4.06h0c-.48-2.72,1.34-5.31,4.06-5.79Z"/>
    <path class="st5" d="M140.95,88.41l24.62,4.34c2.72.48,4.54,3.07,4.06,5.79h0c-.48,2.72-3.07,4.54-5.79,4.06l-24.62-4.34c-2.72-.48-4.54-3.07-4.06-5.79h0c.48-2.72,3.07-4.54,5.79-4.06Z"/>
    <rect class="st17" x="101.08" y="95" width="34" height="28" rx="10" ry="10"/>
    <circle class="st2" cx="118.08" cy="83" r="15"/>
    <ellipse class="st12" cx="118.08" cy="71" rx="15" ry="8"/>
    <circle class="st4" cx="113.08" cy="82" r="2.5"/>
    <circle class="st4" cx="123.08" cy="82" r="2.5"/>
    <path class="st3" d="M111.08,90c4.67,4.67,9.33,4.67,14,0"/>
    <circle class="st6" cx="109.08" cy="87" r="5"/>
    <circle class="st6" cx="127.08" cy="87" r="5"/>
  </g>
  <g>
    <rect class="st9" x="41" y="108.5" width="34" height="28" rx="10" ry="10"/>
    <circle class="st2" cx="58" cy="96.5" r="15"/>
    <ellipse class="st1" cx="58" cy="84.5" rx="15" ry="8"/>
    <circle class="st4" cx="53" cy="95.5" r="2.5"/>
    <circle class="st4" cx="63" cy="95.5" r="2.5"/>
    <path class="st3" d="M51,103.5c4.67,4.67,9.33,4.67,14,0"/>
    <circle class="st6" cx="49" cy="100.5" r="5"/>
    <circle class="st6" cx="67" cy="100.5" r="5"/>
  </g>
  <g>
    <rect class="st13" x="161" y="105.5" width="34" height="28" rx="10" ry="10"/>
    <circle class="st2" cx="178" cy="93.5" r="15"/>
    <ellipse class="st16" cx="178" cy="81.5" rx="15" ry="8"/>
    <circle class="st4" cx="173" cy="92.5" r="2.5"/>
    <circle class="st4" cx="183" cy="92.5" r="2.5"/>
    <path class="st3" d="M171,100.5c4.67,4.67,9.33,4.67,14,0"/>
    <circle class="st6" cx="169" cy="97.5" r="5"/>
    <circle class="st6" cx="187" cy="97.5" r="5"/>
  </g>
</svg>