<?xml version="1.0" encoding="UTF-8"?>
<svg viewBox="0 0 240 148" fill="none" xmlns="http://www.w3.org/2000/svg" class="w-full">
      <rect width="240" height="148" fill="#FFF3E0"/>
      <rect y="120" width="240" height="28" fill="#F2DFC0"/>
      
      <rect x="14" y="18" width="38" height="46" rx="5" fill="#FFCC80"/>
      <rect x="19" y="26" width="28" height="3" rx="1.5" fill="#FFB300" opacity="0.5"/>
      <rect x="19" y="34" width="20" height="3" rx="1.5" fill="#FFB300" opacity="0.5"/>
      <rect x="185" y="18" width="38" height="46" rx="5" fill="#A5D6A7"/>
      <circle cx="204" cy="41" r="12" fill="#66BB6A" opacity="0.65"/>
      
      <rect x="148" y="97" width="26" height="25" rx="8" fill="#90CAF9"/>
      <circle cx="161" cy="85" r="13" fill="#FFCCBC"/>
      <ellipse cx="161" cy="74" rx="13" ry="7" fill="#FF8A65"/>
      <circle cx="156" cy="84" r="2" fill="#424242"/>
      <circle cx="166" cy="84" r="2" fill="#424242"/>
      <path d="M 156 91 Q 161 96 166 91" fill="none" stroke="#424242" stroke-width="1.5" stroke-linecap="round"/>
      
      <rect x="74" y="103" width="38" height="20" rx="8" fill="#7E57C2"/>
      
      <ellipse cx="93" cy="123" rx="20" ry="8" fill="#6A1B9A" opacity="0.4"/>
      
      <circle cx="93" cy="86" r="16" fill="#FFCCBC"/>
      <path d="M 77 86 Q 77 67 93 67 Q 109 67 109 86 Q 106 76 93 74 Q 80 76 77 86 Z" fill="#37474F"/>
      <circle cx="88" cy="85" r="2.5" fill="#424242"/>
      <circle cx="98" cy="85" r="2.5" fill="#424242"/>
      <path d="M 88 93 Q 93 98 98 93" fill="none" stroke="#424242" stroke-width="1.8" stroke-linecap="round"/>
      
      <rect x="112" y="93" width="32" height="8" rx="4" fill="#FFCCBC"/>
    </svg>