<?xml version="1.0" encoding="UTF-8"?>
<svg viewBox="0 0 240 148" fill="none" xmlns="http://www.w3.org/2000/svg" class="w-full">
      
      <rect width="240" height="148" fill="#FFFDE7"/>
      <rect y="122" width="240" height="26" fill="#F3E5C3"/>
      
      <rect x="12" y="10" width="36" height="44" rx="5" fill="#B3E5FC"/>
      <rect x="17" y="18" width="26" height="3" rx="1.5" fill="#4FC3F7" opacity="0.6"/>
      <rect x="17" y="26" width="18" height="3" rx="1.5" fill="#4FC3F7" opacity="0.6"/>
      <rect x="192" y="10" width="36" height="44" rx="5" fill="#DCEDC8"/>
      <circle cx="210" cy="32" r="10" fill="#AED581" opacity="0.8"/>
      
      <circle cx="120" cy="84" r="52" fill="#FFFDE7" opacity="0.4"/>
      <circle cx="120" cy="84" r="42" fill="#FFF9C4" opacity="0.5"/>
      <circle cx="120" cy="84" r="33" fill="#FFF8E1" opacity="0.7"/>
      <circle cx="120" cy="84" r="24" fill="white" opacity="0.85"/>
      
      <circle cx="120" cy="84" r="33" fill="none" stroke="#FFD54F" stroke-width="2.5" opacity="0.9"/>
      <circle cx="120" cy="84" r="42" fill="none" stroke="#FFE082" stroke-width="1.5" opacity="0.5"/>
      
      <circle cx="93" cy="54" r="3" fill="#FFE082"/>
      <circle cx="149" cy="50" r="3" fill="#FFE082"/>
      <circle cx="88" cy="106" r="2.5" fill="#FFCC02"/>
      <circle cx="154" cy="110" r="2.5" fill="#FFCC02"/>
      <circle cx="78" cy="80" r="2" fill="#FFD54F"/>
      <circle cx="163" cy="78" r="2" fill="#FFD54F"/>
      
      <rect x="108" y="91" width="24" height="22" rx="8" fill="#FFA726"/>
      <circle cx="120" cy="79" r="13" fill="#FFCCBC"/>
      <path d="M 107 79 Q 107 63 120 63 Q 133 63 133 79 Q 130 70 120 68 Q 110 70 107 79 Z" fill="#FDD835"/>
      <circle cx="115" cy="78" r="2" fill="#424242"/>
      <circle cx="125" cy="78" r="2" fill="#424242"/>
      <path d="M 115 85 Q 120 90 125 85" fill="none" stroke="#424242" stroke-width="1.8" stroke-linecap="round"/>
      <circle cx="111" cy="83" r="4" fill="#FF8A65" opacity="0.25"/>
      <circle cx="129" cy="83" r="4" fill="#FF8A65" opacity="0.25"/>
      
      
      <circle cx="62" cy="44" r="17" fill="#FFCC80"/>
      <circle cx="57" cy="42" r="2.2" fill="#424242"/>
      <circle cx="67" cy="42" r="2.2" fill="#424242"/>
      <path d="M 57 49 Q 62 54 67 49" fill="none" stroke="#424242" stroke-width="1.8" stroke-linecap="round"/>
      <circle cx="53" cy="46" r="4" fill="#FF8A65" opacity="0.25"/>
      <circle cx="71" cy="46" r="4" fill="#FF8A65" opacity="0.25"/>
      
      <circle cx="178" cy="44" r="17" fill="#A5D6A7"/>
      <circle cx="173" cy="42" r="2.2" fill="#424242"/>
      <circle cx="183" cy="42" r="2.2" fill="#424242"/>
      <path d="M 173 49 Q 178 54 183 49" fill="none" stroke="#424242" stroke-width="1.8" stroke-linecap="round"/>
      <circle cx="169" cy="46" r="4" fill="#66BB6A" opacity="0.2"/>
      <circle cx="187" cy="46" r="4" fill="#66BB6A" opacity="0.2"/>
      
      <circle cx="36" cy="86" r="15" fill="#F48FB1"/>
      <circle cx="31" cy="84" r="2" fill="#424242"/>
      <circle cx="41" cy="84" r="2" fill="#424242"/>
      <path d="M 31 90 Q 36 95 41 90" fill="none" stroke="#424242" stroke-width="1.8" stroke-linecap="round"/>
      
      <circle cx="204" cy="86" r="15" fill="#80DEEA"/>
      <circle cx="199" cy="84" r="2" fill="#424242"/>
      <circle cx="209" cy="84" r="2" fill="#424242"/>
      <path d="M 199 90 Q 204 95 209 90" fill="none" stroke="#424242" stroke-width="1.8" stroke-linecap="round"/>
    </svg>